<svg xmlns="http://www.w3.org/2000/svg" version="1.1" xmlns:xlink="http://www.w3.org/1999/xlink" xmlns:svgjs="http://svgjs.dev/svgjs" width="100%" height="100%" viewBox="0 0 1000 600"><rect width="1000" height="600" x="0" y="0" fill="#171717"/><g><rect width="333.3333333333333" height="333.3333333333333" rx="13.333333333333334" ry="13.333333333333334" y="272.68665360672054" fill="#ffffff" transform="matrix(0.4990728182539812,0,0,0.49907281825398137,0,80.73069007410679)" x="250.46450805664062"/><path d="M407.63374327469785 509.66396339389695L376.8561419327457 514.353318275313L366.3792921027465 472.6833546455146L315.30093924884125 472.6833546455146L303.9930645031481 513.2848576694207L276.6286012077962 511.14793645763615L295.44537965601 459.2088792267622L324.0563803249029 367.32126712002736L362.31320590810094 364.5610772214723L389.88542543237634 456.00349740908536L407.63374327469785 509.66396339389695ZM359.9685284673929 450.03792569285355L343.0809150020401 392.3410529746712L340.32072510348513 392.3410529746712L321.91945911311836 450.03792569285355L359.9685284673929 450.03792569285355ZM462.95625909089733 364.35332099254884L489.9052099284023 446.62478764625325L492.0421311401868 446.62478764625325L523.2352449399859 365.4217815984411L552.7069499858476 366.2528065141351L553.5676543628165 458.14041862086987L557.633740557462 513.2848576694207L528.7853041983708 513.2848576694207L529.8537648042632 457.7249061630229L527.5090873635551 401.5120065085798L501.8660328221407 472.2678421876676L475.5700301326811 473.5440590224834L451.64838434520425 401.5120065085798L449.7192193623432 457.7249061630229L451.2031924260824 513.2848576694207L424.72911296897405 513.2848576694207L427.69705909645256 461.3458004385467L429.0029553925432 369.6956240220101L462.95625909089733 364.35332099254884Z " fill="#000000" transform="matrix(0.4990728182539812,0,0,0.49907281825398137,0,80.73069007410679)"/><path d="M784.2755526808908 509.0189227958055L756.7543214812838 513.2121287066425L747.3859563766924 475.95098251161056L701.7118590820701 475.95098251161056L691.6003941958114 512.2567147016416L667.1311799566238 510.34588669164L683.9570821558049 463.9021503374336L709.5409460674935 381.73654590736334L743.7500753021061 379.2683930611112L768.4050644867104 461.0359083224311L784.2755526808908 509.0189227958055ZM741.6534723466875 455.7015134611766L726.5526232120912 404.10915719113245L724.0844703658393 404.10915719113245L707.6301180574917 455.7015134611766L741.6534723466875 455.7015134611766ZM798.2086735871526 369.1303888969359L824.402940890925 364.3533188719318L821.9082487667563 462.5751864415991L824.0048517221746 507.4796446766375L798.2086735871526 512.2567147016416L800.5175907659045 465.81297834743526L798.2086735871526 369.1303888969359ZM880.9581421313901 492.77688471079165L880.9581421313901 492.77688471079165Q886.5048512159781 492.77688471079165 892.6088851368168 489.9106426957892Q898.7129190576552 487.04440068078674 902.1630251868248 484.1781586657843L902.1630251868248 484.1781586657843L905.6131313159945 481.3119166507818L914.3976323064187 492.0072456512076Q912.486804296417 495.24503755704376 908.4793733309969 499.4647827457973Q904.4454030876602 503.65798865663425 900.3583542884899 506.63038778330343Q896.2447662114032 509.576247632056 889.4507110647305 511.96478264455806Q882.6831951959748 514.3533176570601 875.4114330468019 514.3533176570601L875.4114330468019 514.3533176570601Q859.939034021372 514.3533176570601 850.1991190259471 502.5964175399667Q840.4326647526054 490.86605670079 840.4326647526054 472.3151014370241L840.4326647526054 472.3151014370241Q840.4326647526054 449.0136154261709 854.0207750459504 431.4180741674058Q867.5823460613785 413.84907218655746 885.735212156394 413.84907218655746L885.735212156394 413.84907218655746Q899.6683330626561 413.84907218655746 907.4178022143294 421.67815917198084Q915.1672713660028 429.50724615740415 915.1672713660028 443.6526812869996L915.1672713660028 443.6526812869996Q915.1672713660028 452.06563238659015 912.3010293510001 462.7609613870159L912.3010293510001 462.7609613870159L908.4793733309969 466.768392352436L860.708673080956 471.17391248660647Q863.9464649867921 492.77688471079165 880.9581421313901 492.77688471079165ZM880.9581421313901 433.54121640074095L880.9581421313901 433.54121640074095Q872.5451910317995 433.54121640074095 866.8127070017945 440.3087322694968Q861.0802229717897 447.10278741616924 860.1248089667888 457.6123414711782L860.1248089667888 457.6123414711782L892.6088851368168 453.60491050575814Q893.1927492509838 449.1993903715877 893.1927492509838 446.33314835658524L893.1927492509838 446.33314835658524Q893.1927492509838 433.54121640074095 880.9581421313901 433.54121640074095ZM960.6290544372914 494.4753984974597L960.6290544372914 494.4753984974597Q970.5812836560501 494.4753984974597 970.5812836560501 485.6908975070356L970.5812836560501 485.6908975070356Q970.5812836560501 482.6388805466163 966.2819206335464 479.95841347703066Q961.9825576110427 477.27794640744503 955.7723665785375 474.6240186157761Q949.562175546032 471.94355154619046 943.3519845135268 468.5996025286876Q937.1417934810213 465.2556535111848 932.8424304585178 459.33739453576305Q928.5430674360141 453.3925962824246 928.5430674360141 445.74928424241807L928.5430674360141 445.74928424241807Q928.5430674360141 432.9573522865738 939.7957212726903 423.40321223656565Q951.0749143872833 413.84907218655746 965.804213631046 413.84907218655746L965.804213631046 413.84907218655746Q972.6778866114685 413.84907218655746 979.2596275348074 415.46796813947554Q985.8679077360632 417.08686409239357 991.9719416569017 420.5369702215632L991.9719416569017 420.5369702215632L979.1800097010573 443.83845623241643Q977.8265065273063 442.6972672819988 975.7299035718877 440.972214217414Q973.6333006164693 439.27370043074586 967.7946594747978 436.4870762494935Q961.9825576110427 433.7269913461578 957.4708803652054 433.7269913461578Q952.9857423972851 433.7269913461578 950.5972073847829 435.7174371899095Q948.208672372281 437.7344223115779 948.208672372281 441.2641462744976Q948.208672372281 444.79387023741725 954.8169525735366 448.35013347825367Q961.3986934968755 451.87985744117333 969.2277804822988 454.8257172899258Q977.0568674677222 457.79811641659506 983.6651476689779 464.5921715632675Q990.2468885923167 471.35968743202335 990.2468885923167 480.72805253661465L990.2468885923167 480.72805253661465Q990.2468885923167 494.10384860662606 979.2596275348074 504.2418527708014Q968.272366477298 514.3533176570601 953.9411564022857 514.3533176570601L953.9411564022857 514.3533176570601Q944.7851055210281 514.3533176570601 936.8498614239379 510.34588669164Q928.9146173268477 506.33845572621993 925.4645111976781 502.33102476079983L925.4645111976781 502.33102476079983L922.0409443464252 498.297054517463L937.1417934810213 480.72805253661465Q938.282982431439 482.26733065578264 940.3795853868576 484.54970855661793Q942.4761883422759 486.8320864574532 948.6863793747814 490.6537424774565Q954.8965704072866 494.4753984974597 960.6290544372914 494.4753984974597ZM1035.9209858869392 494.4753984974597L1035.9209858869392 494.4753984974597Q1045.8466758277812 494.4753984974597 1045.8466758277812 485.6908975070356L1045.8466758277812 485.6908975070356Q1045.8466758277812 482.6388805466163 1041.5473128052774 479.95841347703066Q1037.2479497827737 477.27794640744503 1031.0377587502683 474.6240186157761Q1024.827567717763 471.94355154619046 1018.6173766852578 468.5996025286876Q1012.4071856527526 465.2556535111848 1008.1078226302488 459.33739453576305Q1003.8084596077451 453.3925962824246 1003.8084596077451 445.74928424241807L1003.8084596077451 445.74928424241807Q1003.8084596077451 432.9573522865738 1015.0876527223381 423.40321223656565Q1026.3668458369311 413.84907218655746 1041.069605802777 413.84907218655746L1041.069605802777 413.84907218655746Q1047.9698180611163 413.84907218655746 1054.5515589844551 415.46796813947554Q1061.133299907794 417.08686409239357 1067.2638731065495 420.5369702215632L1067.2638731065495 420.5369702215632L1054.4454018727884 443.83845623241643Q1053.118437976954 442.6972672819988 1051.0218350215355 440.972214217414Q1048.925232066117 439.27370043074586 1043.0865909244453 436.4870762494935Q1037.2479497827737 433.7269913461578 1032.7628118148532 433.7269913461578Q1028.2776738469327 433.7269913461578 1025.8891388344307 435.7174371899095Q1023.5006038219287 437.7344223115779 1023.5006038219287 441.2641462744976Q1023.5006038219287 444.79387023741725 1030.0823447452676 448.35013347825367Q1036.6906249465233 451.87985744117333 1044.5197119319466 454.8257172899258Q1052.34879891737 457.79811641659506 1058.9570791186256 464.5921715632675Q1065.5388200419645 471.35968743202335 1065.5388200419645 480.72805253661465L1065.5388200419645 480.72805253661465Q1065.5388200419645 494.10384860662606 1054.5515589844551 504.2418527708014Q1043.5642979269458 514.3533176570601 1029.2330878519335 514.3533176570601L1029.2330878519335 514.3533176570601Q1020.0504976927591 514.3533176570601 1012.1417928735857 510.34588669164Q1004.2065487764955 506.33845572621993 1000.7564426473259 502.33102476079983L1000.7564426473259 502.33102476079983L997.3328757960728 498.297054517463L1012.4071856527526 480.72805253661465Q1013.5749138810868 482.26733065578264 1015.6715168365051 484.54970855661793Q1017.7681197919237 486.8320864574532 1023.978310824429 490.6537424774565Q1030.1885018569344 494.4753984974597 1035.9209858869392 494.4753984974597ZM1082.3647222411457 419.7673311619792L1107.9485861528342 414.9902611369751L1105.6662082519988 462.5751864415991L1107.7628112074174 507.4796446766375L1082.1524080178121 512.2567147016416L1084.461325196564 465.81297834743526L1082.3647222411457 419.7673311619792ZM1081.0112190673944 386.9913229348678Q1081.0112190673944 380.5953569569457 1085.9740640378154 375.526354874858Q1090.963448286153 370.48389207068703 1097.4390320978252 370.48389207068703Q1103.941155187414 370.48389207068703 1107.3912613165837 374.01361603360675Q1110.8148281678366 377.5433399965264 1110.8148281678366 384.6027879223658Q1110.8148281678366 391.6887751261218 1105.9581403090824 396.7577772082095Q1101.0749131724117 401.80024001238047 1094.6789471944894 401.80024001238047Q1088.2829812165674 401.80024001238047 1084.647100141981 397.60703410154355Q1081.0112190673944 393.4138281907066 1081.0112190673944 386.9913229348678ZM1123.2352102328473 472.3151014370241Q1123.2352102328473 447.87242647575323 1136.4252313574418 430.8607493311553Q1149.6152524820366 413.84907218655746 1167.2904115745516 413.84907218655746Q1184.9655706670667 413.84907218655746 1194.8116427741584 425.3140402465673Q1204.6577148812503 436.77900830657705 1204.6577148812503 455.7015134611766L1204.6577148812503 455.7015134611766Q1204.6577148812503 480.9138274820315 1191.945400759156 497.6335725695458Q1179.2330866370617 514.3533176570601 1159.9390315916287 514.3533176570601L1159.9390315916287 514.3533176570601Q1144.0685433974484 514.3533176570601 1133.6651464541062 502.41064259454987Q1123.2352102328473 490.46796753203967 1123.2352102328473 472.3151014370241L1123.2352102328473 472.3151014370241ZM1183.240517602482 465.62720340201844L1183.240517602482 465.62720340201844Q1183.240517602482 437.9201972569947 1164.3180124478824 437.9201972569947L1164.3180124478824 437.9201972569947Q1144.6524075116156 437.9201972569947 1144.6524075116156 463.9021503374336L1144.6524075116156 463.9021503374336Q1144.6524075116156 477.49026063077855 1150.1991165962036 485.1335726707851Q1155.719286402875 492.77688471079165 1164.7957194503829 492.77688471079165Q1173.8721524978905 492.77688471079165 1178.5696046891444 485.7970546187023Q1183.240517602482 478.817224526613 1183.240517602482 465.62720340201844ZM1286.0536802517365 379.0826181156944L1310.1248053221739 452.6494965007573L1312.0356333321756 452.6494965007573L1339.928414422616 380.0380321206952L1366.308456671805 380.7811319023625L1367.078095731389 462.94673633243275L1370.687437528059 512.2567147016416L1344.8912593930368 512.2567147016416L1345.8466733980376 462.5751864415991L1343.750070442619 412.3097940673895L1320.8201343225996 475.5794326207769L1297.3328733663295 476.72062157119456L1275.9156760875612 412.3097940673895L1274.1906230229763 462.5751864415991L1275.5441261967276 512.2567147016416L1251.8445510171239 512.2567147016416L1254.5250180867095 465.81297834743526L1255.6662070371272 383.8596881406985L1286.0536802517365 379.0826181156944ZM1412.3541038572612 512.2567147016416Q1401.0749107426682 512.2567147016416 1393.9093057051623 505.09110966413544Q1386.743700667656 497.92550462662933 1386.743700667656 485.7970546187023Q1386.743700667656 473.6686046107753 1397.8371188368321 464.77794650868435Q1408.9039977280916 455.8872884065934 1424.7744859222719 455.8872884065934L1424.7744859222719 455.8872884065934L1437.7787321014496 455.8872884065934L1437.7787321014496 452.6494965007573Q1437.7787321014496 443.28113139616596 1433.9570760814463 439.83102526699633Q1430.135420061443 436.4074584157434 1419.625866006434 436.4074584157434L1419.625866006434 436.4074584157434Q1415.2203458722636 436.4074584157434 1409.1959297851752 438.2121293140783Q1403.1715136980865 440.01680021241316 1395.7405158814136 443.83845623241643L1395.7405158814136 443.83845623241643L1390.1938067968254 428.76414637573686Q1398.3944436730826 423.031662345732 1410.151343790176 418.44036726614473Q1421.9082439072695 413.84907218655746 1429.551555947276 413.84907218655746L1429.551555947276 413.84907218655746Q1459.540939993135 413.84907218655746 1459.540939993135 442.8830422274156L1459.540939993135 442.8830422274156L1459.540939993135 480.356502645781Q1459.540939993135 491.05183164620684 1466.2288380281407 504.2418527708014L1466.2288380281407 504.2418527708014L1445.9793689777066 512.8405788158088Q1441.2022989527024 503.65798865663425 1438.9199210518673 496.38622650746134L1438.9199210518673 496.38622650746134Q1428.4103669968583 512.2567147016416 1412.3541038572612 512.2567147016416L1412.3541038572612 512.2567147016416ZM1420.3689657881014 492.77688471079165L1420.3689657881014 492.77688471079165Q1428.012277828108 492.77688471079165 1437.7787321014496 484.9212584474516L1437.7787321014496 484.9212584474516L1437.7787321014496 472.1293264916073Q1427.6407279372743 469.846948590772 1421.3243797931023 469.846948590772L1421.3243797931023 469.846948590772Q1409.302086896842 469.846948590772 1409.302086896842 480.54227759119783L1409.302086896842 480.54227759119783Q1409.302086896842 486.0889866757859 1412.3541038572612 489.43293569328875Q1415.4061208176804 492.77688471079165 1420.3689657881014 492.77688471079165ZM1480.7723623264865 419.953106107396L1480.7723623264865 419.953106107396L1503.8880733919227 414.9902611369751Q1505.6131264565076 429.71956038073773 1506.1704512927581 442.8830422274156L1506.1704512927581 442.8830422274156Q1523.5536783281896 415.9456751419759 1538.8403024082027 415.9456751419759L1538.8403024082027 415.9456751419759L1536.7436994527843 445.74928424241807Q1525.6768205615247 445.74928424241807 1519.254315305686 447.76626936408644Q1512.8583493277638 449.78325448575487 1506.1704512927581 455.7015134611766L1506.1704512927581 455.7015134611766L1506.1704512927581 462.5751864415991L1508.2670542481765 507.4796446766375L1482.683190336488 512.2567147016416L1484.9655682373234 465.81297834743526Q1484.1959291777393 440.2291144357467 1480.7723623264865 419.953106107396ZM1583.744760643241 438.6898363165787Q1575.3583488215672 438.6898363165787 1570.76705374198 444.7142524036672Q1566.1757586623926 450.7386684907557 1566.1757586623926 463.1590505557663Q1566.1757586623926 475.5794326207769 1570.8466715757302 483.1165875491167Q1575.5441237669843 490.6537424774565 1584.5143997028251 490.6537424774565L1584.5143997028251 490.6537424774565Q1589.1056947824122 490.6537424774565 1593.5112149165827 487.78750046245403Q1597.8901957728367 484.9212584474516 1600.1991129515886 482.0550164324491L1600.1991129515886 482.0550164324491L1602.295715907007 479.00299947202984L1611.8498559570153 488.9552286907884Q1611.265991842848 489.9106426957892 1610.416734949514 491.6091564824573Q1609.5409387782634 493.3342095470421 1606.1969897607605 497.7397296812125Q1602.8530407432575 502.11871053746626 1599.137541834921 505.46265955496915Q1595.4220429265845 508.806608572472 1589.4772446732459 511.5932327537244Q1583.558985697824 514.3533176570601 1577.0568626082354 514.3533176570601L1577.0568626082354 514.3533176570601Q1562.7256525332232 514.3533176570601 1553.755376597382 502.7025746516335Q1544.785100661541 491.05183164620684 1544.785100661541 472.3151014370241L1544.785100661541 472.3151014370241Q1544.785100661541 449.0136154261709 1558.3466716769694 431.4180741674058Q1571.9082426923978 413.84907218655746 1590.061108787413 413.84907218655746L1590.061108787413 413.84907218655746Q1595.6078178720013 413.84907218655746 1601.1545269565893 415.46796813947554Q1606.6746967632607 417.08686409239357 1612.4071807932655 420.5369702215632L1612.4071807932655 420.5369702215632L1599.0313847232542 444.05077045574996Q1592.1577117428317 438.6898363165787 1583.744760643241 438.6898363165787ZM1680.2415751483236 463.9021503374336Q1680.2415751483236 450.7386684907557 1677.9591972474882 446.33314835658524Q1675.6768193466532 441.9276282224148 1667.2638682470624 441.9276282224148Q1658.850917147472 441.9276282224148 1648.1555881470463 448.6155262574205L1648.1555881470463 448.6155262574205L1648.1555881470463 462.5751864415991L1650.2521911024646 507.4796446766375L1624.4560129674428 512.2567147016416L1626.7383908682777 465.81297834743526L1624.4560129674428 369.1303888969359L1650.6237409932983 364.3533188719318L1648.1555881470463 413.84907218655746L1648.1555881470463 436.1951441924099Q1651.0218301620487 432.37348817240667 1654.6577112366351 428.76414637573686Q1658.2670530333048 425.12826530115046 1665.9103650733114 420.5369702215632Q1673.553677113318 415.9456751419759 1682.258560269992 415.9456751419759Q1690.9634434266663 415.9456751419759 1696.8817024020877 422.7397302886484Q1702.7999613775096 429.50724615740415 1702.7999613775096 441.1845284407475L1702.7999613775096 441.1845284407475L1701.6587724270917 462.5751864415991L1703.7553753825105 508.43505868163834L1677.9591972474882 513.2121287066425L1680.2415751483236 463.9021503374336ZM1724.7744834925284 419.7673311619792L1750.3848866821336 414.9902611369751L1748.0759695033817 462.5751864415991L1750.1991117367165 507.4796446766375L1724.5887085471113 512.2567147016416L1726.8710864479467 465.81297834743526L1724.7744834925284 419.7673311619792ZM1723.4475195966938 386.9913229348678Q1723.4475195966938 380.5953569569457 1728.4103645671148 375.526354874858Q1733.3732095375358 370.48389207068703 1739.8753326271249 370.48389207068703Q1746.3774557167135 370.48389207068703 1749.8010225679664 374.01361603360675Q1753.2511286971362 377.5433399965264 1753.2511286971362 384.6027879223658Q1753.2511286971362 391.6887751261218 1748.3679015604653 396.7577772082095Q1743.5112137017113 401.80024001238047 1737.0887084458723 401.80024001238047Q1730.6927424679502 401.80024001238047 1727.0568613933638 397.60703410154355Q1723.4475195966938 393.4138281907066 1723.4475195966938 386.9913229348678Z " fill="#ffffff" transform="matrix(0.4990728182539812,0,0,0.49907281825398137,0,80.73069007410679)"/></g></svg>